<?xml version="1.0" encoding="UTF-8" standalone="no"?>
<!-- Created with Inkscape (http://www.inkscape.org/) -->

<svg
   xmlns:dc="http://purl.org/dc/elements/1.1/"
   xmlns:cc="http://creativecommons.org/ns#"
   xmlns:rdf="http://www.w3.org/1999/02/22-rdf-syntax-ns#"
   xmlns:svg="http://www.w3.org/2000/svg"
   xmlns="http://www.w3.org/2000/svg"
   xmlns:sodipodi="http://sodipodi.sourceforge.net/DTD/sodipodi-0.dtd"
   xmlns:inkscape="http://www.inkscape.org/namespaces/inkscape"
   id="svg2985"
   version="1.1"
   inkscape:version="0.48.2 r9819"
   width="156.90602"
   height="31.617189"
   xml:space="preserve"
   sodipodi:docname="part03eng.pdf"><metadata
     id="metadata2991"><rdf:RDF><cc:Work
         rdf:about=""><dc:format>image/svg+xml</dc:format><dc:type
           rdf:resource="http://purl.org/dc/dcmitype/StillImage" /><dc:title></dc:title></cc:Work></rdf:RDF></metadata><defs
     id="defs2989"><clipPath
       clipPathUnits="userSpaceOnUse"
       id="clipPath3005"><path
         d="m 0,841.89 595.276,0 L 595.276,0 0,0 0,841.89 z"
         id="path3007"
         inkscape:connector-curvature="0" /></clipPath><clipPath
       clipPathUnits="userSpaceOnUse"
       id="clipPath3021"><path
         d="m 0,0 595.276,0 0,841.89 L 0,841.89 0,0 z"
         id="path3023"
         inkscape:connector-curvature="0" /></clipPath><clipPath
       clipPathUnits="userSpaceOnUse"
       id="clipPath3043"><path
         d="m 0,0 595.276,0 0,841.89 L 0,841.89 0,0 z"
         id="path3045"
         inkscape:connector-curvature="0" /></clipPath><clipPath
       clipPathUnits="userSpaceOnUse"
       id="clipPath3057"><path
         d="m 0,0 595.276,0 0,841.89 L 0,841.89 0,0 z"
         id="path3059"
         inkscape:connector-curvature="0" /></clipPath><clipPath
       clipPathUnits="userSpaceOnUse"
       id="clipPath3403"><path
         d="m 52.914,629.549 244.496,0 0,96.83 -244.496,0 0,-96.83 z"
         id="path3405"
         inkscape:connector-curvature="0" /></clipPath><clipPath
       clipPathUnits="userSpaceOnUse"
       id="clipPath3413"><path
         d="m 53.24,629.861 243.85,0 0,96.024 -243.85,0 0,-96.024 z"
         id="path3415"
         inkscape:connector-curvature="0" /></clipPath><clipPath
       clipPathUnits="userSpaceOnUse"
       id="clipPath3429"><path
         d="m 43.937,622.914 260.788,0 0,110.974 -260.788,0 0,-110.974 z"
         id="path3431"
         inkscape:connector-curvature="0" /></clipPath><clipPath
       clipPathUnits="userSpaceOnUse"
       id="clipPath3441"><path
         d="m 53.24,629.861 243.85,0 0,96.024 -243.85,0 0,-96.024 z"
         id="path3443"
         inkscape:connector-curvature="0" /></clipPath><clipPath
       clipPathUnits="userSpaceOnUse"
       id="clipPath3453"><path
         d="m 43.937,622.914 260.788,0 0,110.974 -260.788,0 0,-110.974 z"
         id="path3455"
         inkscape:connector-curvature="0" /></clipPath><clipPath
       clipPathUnits="userSpaceOnUse"
       id="clipPath3573"><path
         d="m 53.24,629.861 243.85,0 0,96.024 -243.85,0 0,-96.024 z"
         id="path3575"
         inkscape:connector-curvature="0" /></clipPath><clipPath
       clipPathUnits="userSpaceOnUse"
       id="clipPath3589"><path
         d="m 52.914,629.549 244.496,0 0,96.83 -244.496,0 0,-96.83 z"
         id="path3591"
         inkscape:connector-curvature="0" /></clipPath><clipPath
       clipPathUnits="userSpaceOnUse"
       id="clipPath3599"><path
         d="m 43.937,622.914 260.788,0 0,110.974 -260.788,0 0,-110.974 z"
         id="path3601"
         inkscape:connector-curvature="0" /></clipPath><clipPath
       clipPathUnits="userSpaceOnUse"
       id="clipPath3021-4"><path
         inkscape:connector-curvature="0"
         d="m 0,0 595.276,0 0,841.89 L 0,841.89 0,0 z"
         id="path3023-0" /></clipPath><clipPath
       clipPathUnits="userSpaceOnUse"
       id="clipPath3043-9"><path
         inkscape:connector-curvature="0"
         d="m 0,0 595.276,0 0,841.89 L 0,841.89 0,0 z"
         id="path3045-4" /></clipPath><clipPath
       clipPathUnits="userSpaceOnUse"
       id="clipPath3057-8"><path
         inkscape:connector-curvature="0"
         d="m 0,0 595.276,0 0,841.89 L 0,841.89 0,0 z"
         id="path3059-8" /></clipPath></defs><sodipodi:namedview
     pagecolor="#ffffff"
     bordercolor="#666666"
     borderopacity="1"
     objecttolerance="10"
     gridtolerance="10"
     guidetolerance="10"
     inkscape:pageopacity="0"
     inkscape:pageshadow="2"
     inkscape:window-width="1920"
     inkscape:window-height="1137"
     id="namedview2987"
     showgrid="false"
     fit-margin-top="0"
     fit-margin-left="0"
     fit-margin-right="0"
     fit-margin-bottom="0"
     inkscape:zoom="3.588117"
     inkscape:cx="70.948544"
     inkscape:cy="-3.7834979"
     inkscape:window-x="-4"
     inkscape:window-y="-4"
     inkscape:window-maximized="1"
     inkscape:current-layer="g2993" /><g
     id="g2993"
     inkscape:groupmode="layer"
     inkscape:label="part03eng"
     transform="matrix(1.25,0,0,-1.25,-4.5989121,1036.8316)"><g
       id="g4045"
       transform="matrix(2.4372472,0,0,2.4372472,-127.58613,-1180.1498)"><g
         transform="translate(65.9852,823.4266)"
         id="g3013"><path
           id="path3015"
           style="fill:#231f20;fill-opacity:1;fill-rule:nonzero;stroke:none"
           d="m 0,0 2.2,0 0,-5.972 2.357,0 0,-1.886 L 0,-7.858 0,0 z"
           inkscape:connector-curvature="0" /></g><g
         id="g3017"><g
           clip-path="url(#clipPath3021-4)"
           id="g3019"><g
             transform="translate(71.4269,818.7455)"
             id="g3025"><path
               id="path3027"
               style="fill:#231f20;fill-opacity:1;fill-rule:nonzero;stroke:none"
               d="m 0,0 0,4.681 2.2,0 0,-4.636 c 0,-0.483 0.09,-1.56 1.257,-1.56 1.168,0 1.258,1.077 1.258,1.56 l 0,4.636 2.2,0 0,-4.681 c 0,-0.842 -0.18,-3.401 -3.458,-3.401 C 0.18,-3.401 0,-0.842 0,0"
               inkscape:connector-curvature="0" /></g></g></g><g
         transform="translate(79.7761,823.4266)"
         id="g3029"><path
           id="path3031"
           style="fill:#231f20;fill-opacity:1;fill-rule:nonzero;stroke:none"
           d="m 0,0 2.2,0 0,-3.3 2.369,3.3 2.582,0 -2.986,-3.805 3.064,-4.053 -2.75,0 -2.279,3.379 0,-3.379 -2.2,0 L 0,0 z"
           inkscape:connector-curvature="0" /></g><path
         id="path3033"
         style="fill:#231f20;fill-opacity:1;fill-rule:nonzero;stroke:none"
         d="m 96.991,823.427 2.2,0 0,-7.858 -2.2,0 0,7.858 z"
         inkscape:connector-curvature="0" /><g
         transform="translate(100.8027,823.4266)"
         id="g3035"><path
           id="path3037"
           style="fill:#231f20;fill-opacity:1;fill-rule:nonzero;stroke:none"
           d="m 0,0 2.2,0 0,-5.972 2.358,0 0,-1.886 L 0,-7.858 0,0 z"
           inkscape:connector-curvature="0" /></g><g
         id="g3039"><g
           clip-path="url(#clipPath3043-9)"
           id="g3041"><g
             transform="translate(93.4033,819.4919)"
             id="g3047"><path
               id="path3049"
               style="fill:#231f20;fill-opacity:1;fill-rule:nonzero;stroke:none"
               d="m 0,0 c 0,1.551 -0.954,2.32 -1.999,2.32 -1.045,0 -1.999,-0.769 -1.999,-2.32 0,-1.551 0.954,-2.32 1.999,-2.32 C -0.954,-2.32 0,-1.551 0,0 m -6.318,0 c 0,2.148 1.379,4.25 4.319,4.25 2.941,0 4.319,-2.102 4.319,-4.25 0,-2.148 -1.378,-4.25 -4.319,-4.25 -2.94,0 -4.319,2.102 -4.319,4.25"
               inkscape:connector-curvature="0" /></g></g></g><path
         id="path3051"
         style="fill:#e22739;fill-opacity:1;fill-rule:nonzero;stroke:none"
         d="m 53.858,824.543 10.356,0 0,-10.378 -10.356,0 0,10.378 z"
         inkscape:connector-curvature="0" /><g
         id="g3053"><g
           clip-path="url(#clipPath3057-8)"
           id="g3055"><g
             transform="translate(63.0684,822.5732)"
             id="g3061"><path
               id="path3063"
               style="fill:#ffffff;fill-opacity:1;fill-rule:nonzero;stroke:none"
               d="M 0,0 -1.163,-1.881 C -1.29,-2.092 -1.271,-2.258 -1.212,-2.418 l 1.766,-4.518 -7.314,0 c -0.656,0 -1.164,0.527 -1.164,1.155 l -0.007,6.014 c 0.018,0.777 1.15,0.79 1.171,0.003 l 0,-5.637 c -0.002,-0.179 0.155,-0.38 0.362,-0.375 l 5.357,0 -1.387,3.264 c -0.036,0.125 -0.061,0.249 -0.061,0.374 0,0.138 0.061,0.359 0.152,0.539 l 1.273,2.096 C -0.97,0.685 -0.78,0.812 -0.554,0.821 -0.237,0.835 0.034,0.617 0.048,0.28 0.049,0.213 0.033,0.066 0,0"
               inkscape:connector-curvature="0" /></g><g
             transform="translate(59.0343,818.775)"
             id="g3065"><path
               id="path3067"
               style="fill:#ffffff;fill-opacity:1;fill-rule:nonzero;stroke:none"
               d="m 0,0 0,4.034 c 0,0.787 1.148,0.793 1.161,0 l 0,-4.078 c 0,-0.933 -0.697,-1.55 -1.551,-1.55 -0.853,0 -1.552,0.632 -1.552,1.55 l 0,4.078 c 0,0.787 1.161,0.787 1.161,0 L -0.781,0 C -0.781,-0.541 0,-0.574 0,0"
               inkscape:connector-curvature="0" /></g></g></g></g></g></svg>